<svg xmlns="http://www.w3.org/2000/svg" width="60" height="60" viewBox="0 0 60 60">
  <defs>
    <style>
      .cls-1, .cls-2 {
        fill: none;
      }

      .cls-1 {
        stroke: #fff;
        stroke-linecap: round;
        stroke-linejoin: round;
        stroke-miterlimit: 10;
        stroke-width: 1.5px;
      }
    </style>
  </defs>
  <g id="btn_logout" transform="translate(579 -138.95) rotate(90)">
    <g id="그룹_357" data-name="그룹 357" transform="translate(-2 -1.3)">
      <path id="패스_326" data-name="패스 326" class="cls-1" d="M0,7.05V4.7a4.7,4.7,0,0,1,9.4,0V7.05" transform="translate(158.95 555.1) rotate(-90)"/>
      <path id="패스_327" data-name="패스 327" class="cls-1" d="M14.1,0H4.7A4.714,4.714,0,0,0,0,4.7v7.05a4.714,4.714,0,0,0,4.7,4.7h9.4a4.714,4.714,0,0,0,4.7-4.7V4.7A4.714,4.714,0,0,0,14.1,0ZM9.4,10.575a2.35,2.35,0,1,1,2.35-2.35A2.357,2.357,0,0,1,9.4,10.575Z" transform="translate(166 559.8) rotate(-90)"/>
    </g>
    <rect id="사각형_81" data-name="사각형 81" class="cls-2" width="60" height="60" transform="translate(138.95 579) rotate(-90)"/>
  </g>
</svg>
