<svg xmlns="http://www.w3.org/2000/svg" xmlns:xlink="http://www.w3.org/1999/xlink" width="88" height="68" viewBox="0 0 88 68">
  <defs>
    <style>
      .cls-1 {
        fill: #00b896;
      }

      .cls-2 {
        fill: none;
        stroke: #fff;
        stroke-linecap: round;
        stroke-linejoin: round;
        stroke-miterlimit: 10;
        stroke-width: 1.5px;
      }

      .cls-3 {
        filter: url(#bg_btn_photo);
      }
    </style>
    <filter id="bg_btn_photo" x="0" y="0" width="88" height="68" filterUnits="userSpaceOnUse">
      <feOffset dx="3" dy="3" input="SourceAlpha"/>
      <feGaussianBlur stdDeviation="5" result="blur"/>
      <feFlood flood-color="#00b896" flood-opacity="0.251"/>
      <feComposite operator="in" in2="blur"/>
      <feComposite in="SourceGraphic"/>
    </filter>
  </defs>
  <g id="btn_photo" transform="translate(-240 -321)">
    <g class="cls-3" transform="matrix(1, 0, 0, 1, 240, 321)">
      <rect id="bg_btn_photo-2" data-name="bg_btn_photo" class="cls-1" width="58" height="38" rx="19" transform="translate(12 12)"/>
    </g>
    <g id="icon_camera" transform="translate(272 342)">
      <path id="camera_frame" class="cls-2" d="M1254.4,3306h-10.8a3.611,3.611,0,0,0-3.6,3.6v7.2a3.61,3.61,0,0,0,3.6,3.6h10.8a3.611,3.611,0,0,0,3.6-3.6v-7.2A3.611,3.611,0,0,0,1254.4,3306Zm-5.4,10.8a3.6,3.6,0,1,1,3.6-3.6A3.611,3.611,0,0,1,1249,3316.8Z" transform="translate(-1240 -3302.4)"/>
      <path id="camera_top" class="cls-2" d="M1253.938,3305.516,1252.2,3302h-5.4l-1.769,3.516" transform="translate(-1240.5 -3302)"/>
    </g>
  </g>
</svg>
