<svg xmlns="http://www.w3.org/2000/svg" width="60" height="60" viewBox="0 0 60 60">
  <defs>
    <style>
      .cls-1, .cls-2 {
        fill: none;
      }

      .cls-2 {
        stroke: #fff;
        stroke-linecap: round;
        stroke-linejoin: round;
        stroke-miterlimit: 10;
        stroke-width: 1.5px;
      }
    </style>
  </defs>
  <g id="btn_notice" transform="translate(579 -51) rotate(90)">
    <rect id="사각형_82" data-name="사각형 82" class="cls-1" width="60" height="60" transform="translate(51 579) rotate(-90)"/>
    <g id="Iconly_Light_Notification" data-name="Iconly/Light/Notification" transform="translate(69 561.4) rotate(-90)">
      <g id="Notification" transform="translate(3.5 2)">
        <path id="Path_425" class="cls-2" d="M0,11.787v-.219A3.6,3.6,0,0,1,.6,9.75,4.87,4.87,0,0,0,1.8,7.436c0-.666,0-1.342.058-2.009C2.155,2.218,5.327,0,8.461,0h.078c3.134,0,6.306,2.218,6.617,5.427.058.666,0,1.342.049,2.009A4.955,4.955,0,0,0,16.4,9.759a3.506,3.506,0,0,1,.6,1.809v.209a3.566,3.566,0,0,1-.844,2.39A4.505,4.505,0,0,1,13.3,15.538a45.078,45.078,0,0,1-9.615,0A4.554,4.554,0,0,1,.835,14.167,3.6,3.6,0,0,1,0,11.787Z" transform="translate(0 0)"/>
        <path id="Path_421" class="cls-2" d="M0,0A3.061,3.061,0,0,0,2.037,1.127,3.088,3.088,0,0,0,4.288.5,2.886,2.886,0,0,0,4.812,0" transform="translate(6.055 18.852)"/>
      </g>
    </g>
  </g>
</svg>
