<svg id="icon_id" xmlns="http://www.w3.org/2000/svg" width="14" height="18" viewBox="0 0 14 18">
  <defs>
    <style>
      .cls-1 {
        fill: #ffae29;
      }
    </style>
  </defs>
  <path id="패스_189" data-name="패스 189" class="cls-1" d="M465.872,183.878c-3.866,0-7,2-7,4.473s3.134,4.473,7,4.473,7-2,7-4.473S469.738,183.878,465.872,183.878Zm0,7.649c-3.013,0-5.656-1.484-5.656-3.176s2.643-3.176,5.656-3.176,5.656,1.484,5.656,3.176S468.885,191.527,465.872,191.527Z" transform="translate(-458.872 -174.824)"/>
  <path id="패스_190" data-name="패스 190" class="cls-1" d="M469.319,170.293a4.006,4.006,0,1,0-4.245-4A4.132,4.132,0,0,0,469.319,170.293Zm0-6.7a2.707,2.707,0,1,1-2.868,2.7A2.792,2.792,0,0,1,469.319,163.592Z" transform="translate(-462.393 -162.295)"/>
</svg>
