<svg xmlns="http://www.w3.org/2000/svg" width="36" height="36" viewBox="0 0 36 36">
  <defs>
    <style>
      .cls-1 {
        fill: none;
      }

      .cls-2 {
        fill: #b8b6b1;
      }
    </style>
  </defs>
  <g id="icon_calendar" transform="translate(-293 -1.5)">
    <rect id="사각형_221" data-name="사각형 221" class="cls-1" width="36" height="36" rx="4" transform="translate(293 1.5)"/>
    <g id="Iconly_Broken_Calendar" data-name="Iconly/Broken/Calendar" transform="translate(302 8)">
      <g id="Calendar" transform="translate(0 0)">
        <path id="Calendar-2" data-name="Calendar" class="cls-2" d="M5.626,20C1.9,20,0,18.311,0,14.985V6.715A4.542,4.542,0,0,1,2.07,2.469.685.685,0,0,1,2.8,2.442a.713.713,0,0,1-.071,1.265A3.143,3.143,0,0,0,1.374,6.715V6.98H14.061a.7.7,0,0,1,0,1.4H1.374v6.608c0,2.538,1.235,3.591,4.252,3.609h6.748c2.974,0,4.243-1.079,4.243-3.618V6.706c0-2.211-.966-3.282-3.165-3.539V3.84a.694.694,0,0,1-1.382-.053V.673a.7.7,0,0,1,.222-.49.677.677,0,0,1,.5-.183.712.712,0,0,1,.661.734V1.77C16.461,2.062,18,3.725,18,6.715v8.27C18,18.311,16.1,20,12.374,20Zm6.7-4.918a.877.877,0,0,1,.869-.885h-.009a.863.863,0,0,1,.621.256.894.894,0,0,1,.257.629.87.87,0,1,1-1.739,0Zm-4.174,0a.87.87,0,1,1,.869.885A.877.877,0,0,1,8.148,15.082Zm-4.165,0a.877.877,0,0,1,.869-.885H4.844a.861.861,0,0,1,.62.256.89.89,0,0,1,.257.629.87.87,0,1,1-1.739,0ZM12.322,11.5a.877.877,0,0,1,.869-.884h-.009a.859.859,0,0,1,.621.256.893.893,0,0,1,.257.628.87.87,0,1,1-1.739,0Zm-4.174,0a.87.87,0,1,1,.869.885A.877.877,0,0,1,8.148,11.5Zm-4.165,0a.877.877,0,0,1,.869-.884H4.844a.857.857,0,0,1,.62.256.889.889,0,0,1,.257.628.87.87,0,1,1-1.739,0Zm1.235-7a.694.694,0,0,1-.67-.708V.735a.694.694,0,0,1,1.382,0V1.7H9.861a.7.7,0,0,1,0,1.4H5.913v.7a.706.706,0,0,1-.2.5.683.683,0,0,1-.485.2Z" transform="translate(0 0.5)"/>
      </g>
    </g>
  </g>
</svg>
