<svg xmlns="http://www.w3.org/2000/svg" width="34" height="18" viewBox="0 0 34 18">
  <defs>
    <style>
      .cls-1 {
        fill: #fff;
      }

      .cls-2, .cls-4 {
        fill: #ffae29;
      }

      .cls-2 {
        font-size: 11px;
        font-family: NotoSansKR-Regular, Noto Sans KR;
        letter-spacing: -0.05em;
      }

      .cls-3, .cls-4 {
        stroke: none;
      }
    </style>
  </defs>
  <g id="btn_sellout" transform="translate(-333 -182)">
    <g id="bg_allotment" class="cls-1" transform="translate(333 182)">
      <path class="cls-3" d="M 25 17.5 L 9 17.5 C 4.313079833984375 17.5 0.5 13.68692016601563 0.5 9 C 0.5 4.313079833984375 4.313079833984375 0.5 9 0.5 L 25 0.5 C 29.68692016601563 0.5 33.5 4.313079833984375 33.5 9 C 33.5 13.68692016601563 29.68692016601563 17.5 25 17.5 Z"/>
      <path class="cls-4" d="M 9 1 C 4.588790893554688 1 1 4.588789939880371 1 9 C 1 13.41121006011963 4.588790893554688 17 9 17 L 25 17 C 29.41120910644531 17 33 13.41121006011963 33 9 C 33 4.588789939880371 29.41120910644531 1 25 1 L 9 1 M 9 0 L 25 0 C 29.97056007385254 0 34 4.029439926147461 34 9 C 34 13.97056007385254 29.97056007385254 18 25 18 L 9 18 C 4.029439926147461 18 0 13.97056007385254 0 9 C 0 4.029439926147461 4.029439926147461 0 9 0 Z"/>
    </g>
    <text id="마진" class="cls-2" transform="translate(350 195)"><tspan x="-9.845" y="0">마진</tspan></text>
  </g>
</svg>
