<svg id="icon_phone" xmlns="http://www.w3.org/2000/svg" width="13" height="13" viewBox="0 0 13 13">
  <defs>
    <style>
      .cls-1 {
        fill: #fff;
        opacity: 0;
      }

      .cls-2 {
        fill: #b8b6b1;
      }
    </style>
  </defs>
  <rect id="transparent_link_area" class="cls-1" width="13" height="13"/>
  <path id="phone" class="cls-2" d="M8,11a5.209,5.209,0,0,1-2.389-.445,10.884,10.884,0,0,1-2.9-2.271A10.479,10.479,0,0,1,.438,5.218,5.223,5.223,0,0,1,0,2.984a3.153,3.153,0,0,1,.241-1.3,4.009,4.009,0,0,1,.9-1.253A1.581,1.581,0,0,1,2.261,0h.071A1.727,1.727,0,0,1,3.476.475L4.656,1.6l.008.008a1.663,1.663,0,0,1,.455,1.175,1.661,1.661,0,0,1-.455,1.174l-.574.575A3.576,3.576,0,0,0,5,5.985,3.483,3.483,0,0,0,6.448,6.9l.574-.575a1.737,1.737,0,0,1,2.347,0l1.177,1.179a1.745,1.745,0,0,1,0,2.349A3.939,3.939,0,0,1,8,11ZM2.26,1.1a.489.489,0,0,0-.341.112,2.977,2.977,0,0,0-.668.908,2.087,2.087,0,0,0-.152.864,4.14,4.14,0,0,0,.347,1.793A9.436,9.436,0,0,0,3.488,7.507,9.941,9.941,0,0,0,6.076,9.559,4.15,4.15,0,0,0,8,9.9a2.891,2.891,0,0,0,1.767-.821.659.659,0,0,0,0-.795L8.59,7.106a.652.652,0,0,0-.79,0l-.784.786a.548.548,0,0,1-.467.156A4.312,4.312,0,0,1,4.214,6.759,4.342,4.342,0,0,1,2.946,4.437.552.552,0,0,1,3.1,3.971l.784-.786a.575.575,0,0,0,.134-.4.579.579,0,0,0-.13-.394L2.711,1.265,2.7,1.257A.63.63,0,0,0,2.29,1.1H2.26Z" transform="translate(1 1)"/>
</svg>
