<svg xmlns="http://www.w3.org/2000/svg" width="60" height="60" viewBox="0 0 60 60">
  <defs>
    <style>
      .cls-1, .cls-2 {
        fill: none;
      }

      .cls-2 {
        stroke: #fff;
        stroke-linecap: round;
        stroke-linejoin: round;
        stroke-miterlimit: 10;
        stroke-width: 1.5px;
      }
    </style>
  </defs>
  <g id="btn_unit_price" transform="translate(0 -120)">
    <rect id="사각형_73" data-name="사각형 73" class="cls-1" width="60" height="60" transform="translate(0 120)"/>
    <g id="Iconly_Light_Document" data-name="Iconly/Light/Document" transform="translate(17.6 138)">
      <g id="Document" transform="translate(3 2)">
        <path id="Stroke_1" data-name="Stroke 1" class="cls-2" d="M7.22.5H0" transform="translate(5.496 13.723)"/>
        <path id="Stroke_2" data-name="Stroke 2" class="cls-2" d="M7.22.5H0" transform="translate(5.496 9.537)"/>
        <path id="Stroke_3" data-name="Stroke 3" class="cls-2" d="M2.755.5H0" transform="translate(5.496 5.36)"/>
        <path id="Stroke_4" data-name="Stroke 4" class="cls-2" d="M12.158,0,4.469,0A4.251,4.251,0,0,0,0,4.607v9.2A4.254,4.254,0,0,0,4.506,18.41l7.689,0a4.252,4.252,0,0,0,4.47-4.6v-9.2A4.255,4.255,0,0,0,12.158,0Z" transform="translate(0.751 0.75)"/>
      </g>
    </g>
  </g>
</svg>
