<svg id="icon_password" xmlns="http://www.w3.org/2000/svg" width="14" height="18" viewBox="0 0 14 18">
  <defs>
    <style>
      .cls-1 {
        fill: #ffae29;
      }
    </style>
  </defs>
  <path id="패스_112" data-name="패스 112" class="cls-1" d="M1004.411,577.246a3.127,3.127,0,0,1,3.091,3.156v3.3a3.127,3.127,0,0,1-3.091,3.156h-5.168a3.127,3.127,0,0,1-3.091-3.156v-3.3a3.127,3.127,0,0,1,3.091-3.156h5.168m0-1.352h-5.168a4.476,4.476,0,0,0-4.416,4.508v3.3a4.476,4.476,0,0,0,4.416,4.508h5.168a4.476,4.476,0,0,0,4.416-4.508v-3.3a4.476,4.476,0,0,0-4.416-4.508Z" transform="translate(-994.827 -570.211)"/>
  <path id="패스_113" data-name="패스 113" class="cls-1" d="M1008.169,588.547a.86.86,0,1,1-.854.86.857.857,0,0,1,.854-.86m0-1.3a2.157,2.157,0,1,0,2.151,2.157,2.156,2.156,0,0,0-2.151-2.157Z" transform="translate(-1001.028 -577.682)"/>
  <g id="그룹_70" data-name="그룹 70" transform="translate(1.308)">
    <path id="패스_114" data-name="패스 114" class="cls-1" d="M998.256,570.493a5.545,5.545,0,0,1-.4-2.084,5.778,5.778,0,0,1,11.555,0,5.552,5.552,0,0,1-.32,1.862l-1.257-.425a4.287,4.287,0,0,0,.246-1.437,4.447,4.447,0,0,0-8.893,0,4.28,4.28,0,0,0,.311,1.609Z" transform="translate(-997.852 -562.747)"/>
  </g>
</svg>
