<svg id="icon_pin" xmlns="http://www.w3.org/2000/svg" width="13" height="13" viewBox="0 0 13 13">
  <defs>
    <style>
      .cls-1 {
        fill: #fff;
        opacity: 0;
      }

      .cls-2 {
        fill: #b8b6b1;
      }
    </style>
  </defs>
  <rect id="transparent_link_area" class="cls-1" width="13" height="13"/>
  <path id="pin_outline" class="cls-2" d="M900.454,159.617a.562.562,0,0,1-.358-.13l-.192-.159c-.1-.089-.259-.238-.467-.446a14.624,14.624,0,0,1-1.408-1.648,9.94,9.94,0,0,1-2.074-5.74,5.351,5.351,0,0,1,1.08-3.316,4.175,4.175,0,0,1,3.271-1.561h.3a4.184,4.184,0,0,1,3.273,1.563,5.347,5.347,0,0,1,1.077,3.316,9.93,9.93,0,0,1-2.075,5.723,14.378,14.378,0,0,1-1.409,1.651c-.2.2-.357.346-.458.437l-.263.221A.573.573,0,0,1,900.454,159.617Zm-.144-11.856a3.06,3.06,0,0,0-2.391,1.136,4.2,4.2,0,0,0-.826,2.6,8.817,8.817,0,0,0,1.853,5.048,13.316,13.316,0,0,0,1.292,1.515l.153.15a.086.086,0,0,0,.06.024.088.088,0,0,0,.061-.024l.15-.149a13.526,13.526,0,0,0,1.3-1.512,8.819,8.819,0,0,0,1.855-5.051,4.21,4.21,0,0,0-.825-2.607,3.062,3.062,0,0,0-2.388-1.135l-.153,0Z" transform="translate(-893.955 -146.617)"/>
  <path id="point_round" class="cls-2" d="M900.371,153.149a1.915,1.915,0,1,1,1.915-1.915A1.917,1.917,0,0,1,900.371,153.149Zm0-2.667a.752.752,0,0,0-.752.751.751.751,0,0,0,.751.753.752.752,0,1,0,0-1.5Z" transform="translate(-893.871 -146.567)"/>
</svg>
