<svg xmlns="http://www.w3.org/2000/svg" width="129.065" height="61.584" viewBox="0 0 129.065 61.584">
  <defs>
    <style>
      .cls-1 {
        fill: #ffae29;
      }

      .cls-2 {
        fill: #040a5b;
      }
    </style>
  </defs>
  <g id="logo" transform="translate(-68.151 -165.833)">
    <g id="symbol" transform="translate(91.372 165.833)">
      <path id="패스_5628" data-name="패스 5628" class="cls-1" d="M284.712,165.833h-25.4a2.4,2.4,0,0,0-2.4,2.4v5.753a2.4,2.4,0,0,0,2.4,2.4h24.146a1.25,1.25,0,0,1,1.25,1.25v27.2a2.407,2.407,0,0,0,2.407,2.407h5.754a2.4,2.4,0,0,0,2.4-2.4v-35.82a3.2,3.2,0,0,0-3.2-3.2Z" transform="translate(-215.402 -165.833)"/>
      <path id="패스_5629" data-name="패스 5629" class="cls-2" d="M198.759,180.845h-5.652l-14.9,14.941a1.326,1.326,0,0,1-1.875,0l-28.978-28.978a3.332,3.332,0,0,0-2.355-.976h-5.927a3.212,3.212,0,0,0-3.212,3.212v38.209h10.559V182.075a.558.558,0,0,1,.953-.394L169.7,204.014a11.057,11.057,0,0,0,7.82,3.24h0a11.058,11.058,0,0,0,7.819-3.239l15.387-15.433v-7.737Z" transform="translate(-135.864 -165.833)"/>
    </g>
    <g id="mangomap" transform="translate(68.151 216.076)">
      <path id="패스_5630" data-name="패스 5630" class="cls-2" d="M68.151,312.346h2.04L75.3,319.2l5.007-6.857H82.33v11.341H79.994v-7.011c0-.22.021-.616.084-1.209a7.78,7.78,0,0,1-.631,1.187l-4.081,5.67h-.505l-4.081-5.692a5.112,5.112,0,0,1-.652-1.165c.042.462.063.835.063,1.209v7.011h-2.04Z" transform="translate(-68.151 -312.346)"/>
      <path id="패스_5631" data-name="패스 5631" class="cls-2" d="M121.408,312.346h2.44l6.227,11.341h-2.84l-1.3-2.484h-6.879l-1.262,2.484h-2.524Zm3.471,6.813-2.335-4.615-2.419,4.615Z" transform="translate(-99.109 -312.346)"/>
      <path id="패스_5632" data-name="패스 5632" class="cls-2" d="M164.9,312.346h1.725l7.636,6.682a9.553,9.553,0,0,1,1.241,1.23c-.063-.945-.1-1.6-.1-1.956v-5.956h2.272v11.341H175.94l-7.973-7.011a9.094,9.094,0,0,1-.9-.923c.084.879.105,1.473.105,1.8v6.132H164.9Z" transform="translate(-131.72 -312.346)"/>
      <path id="패스_5633" data-name="패스 5633" class="cls-2" d="M216.436,314.368v7.187h7.889v-2.527H220.2v-1.934h6.585v3.912c0,2.132-.652,2.681-2.693,2.681h-7.489c-2.041,0-2.693-.55-2.693-2.681v-5.978c0-2.132.652-2.681,2.693-2.681h7.489c1.977,0,2.693.528,2.693,2.572v.264l-2.461.462v-1.275Z" transform="translate(-163.927 -312.346)"/>
      <path id="패스_5634" data-name="패스 5634" class="cls-2" d="M265.377,312.346h7.994c2.04,0,2.693.55,2.693,2.681v5.978c0,2.132-.652,2.681-2.693,2.681h-7.994c-2.041,0-2.693-.55-2.693-2.681v-5.978C262.684,312.9,263.336,312.346,265.377,312.346Zm8.162,9.209v-7.187h-8.33v7.187Z" transform="translate(-195.974 -312.346)"/>
      <path id="패스_5635" data-name="패스 5635" class="cls-2" d="M313.479,312.346h2.041l5.112,6.857,5.007-6.857h2.02v11.341h-2.335v-7.011c0-.22.021-.616.084-1.209a7.806,7.806,0,0,1-.631,1.187l-4.081,5.67h-.5l-4.081-5.692a5.112,5.112,0,0,1-.652-1.165c.042.462.063.835.063,1.209v7.011h-2.041Z" transform="translate(-229.35 -312.346)"/>
      <path id="패스_5636" data-name="패스 5636" class="cls-2" d="M366.737,312.346h2.44l6.227,11.341h-2.84l-1.3-2.484h-6.879l-1.262,2.484h-2.525Zm3.471,6.813-2.335-4.615-2.419,4.615Z" transform="translate(-260.308 -312.346)"/>
      <path id="패스_5637" data-name="패스 5637" class="cls-2" d="M410.286,312.346h9.3c1.662,0,2.44.616,2.44,2.2v2.527c0,1.582-.778,2.2-2.44,2.2h-6.816v4.418h-2.482Zm2.482,1.956v3.011h5.68c.778,0,1.136-.154,1.136-.9V315.2c0-.747-.358-.9-1.136-.9Z" transform="translate(-292.959 -312.346)"/>
    </g>
  </g>
</svg>
