<svg id="logo" xmlns="http://www.w3.org/2000/svg" xmlns:xlink="http://www.w3.org/1999/xlink" width="65" height="16" viewBox="0 0 65 16">
  <defs>
    <style>
      .cls-1 {
        fill: #fff;
      }

      .cls-2 {
        clip-path: url(#clip-path);
      }
    </style>
    <clipPath id="clip-path">
      <rect id="사각형_245" data-name="사각형 245" class="cls-1" width="65" height="16"/>
    </clipPath>
  </defs>
  <g id="그룹_345" data-name="그룹 345">
    <g id="그룹_340" data-name="그룹 340" class="cls-2">
      <path id="패스_5622" data-name="패스 5622" class="cls-1" d="M15.07,4.42a.2.2,0,0,1,.02.11V9.74a1.071,1.071,0,0,1-1.07,1.07,1.054,1.054,0,0,1-1.05-1.07V4.33a2.19,2.19,0,0,0-4.38,0v5.4A1.054,1.054,0,0,1,7.54,10.8,1.071,1.071,0,0,1,6.47,9.73V4.33a2.18,2.18,0,0,0-4.36,0v5.4A1.055,1.055,0,1,1,0,9.73V4.33A4.306,4.306,0,0,1,4.31.04,4.259,4.259,0,0,1,7.55,1.52,4.238,4.238,0,0,1,10.78.04a4.306,4.306,0,0,1,4.31,4.29A.134.134,0,0,1,15.07,4.42Z"/>
    </g>
    <g id="그룹_341" data-name="그룹 341" class="cls-2">
      <path id="패스_5623" data-name="패스 5623" class="cls-1" d="M25.41,5.47a3.237,3.237,0,0,0-3.17-3.32,3.364,3.364,0,0,0-3.32,3.32,3.237,3.237,0,0,0,3.32,3.17A3.109,3.109,0,0,0,25.41,5.47Zm2.1,0v4.2a1.035,1.035,0,0,1-1.07,1.07,1.128,1.128,0,0,1-1.03-1.07,4.674,4.674,0,0,1-3.17,1.07,5.261,5.261,0,0,1-5.42-5.27A5.386,5.386,0,0,1,22.24.05,5.255,5.255,0,0,1,27.51,5.47Z"/>
    </g>
    <g id="그룹_342" data-name="그룹 342" class="cls-2">
      <path id="패스_5624" data-name="패스 5624" class="cls-1" d="M40.02,5.38V9.69a1.06,1.06,0,1,1-2.12,0V5.38a3.26,3.26,0,1,0-6.52,0V9.69a1.06,1.06,0,1,1-2.12,0V5.38a5.38,5.38,0,1,1,10.76,0Z"/>
    </g>
    <g id="그룹_343" data-name="그룹 343" class="cls-2">
      <path id="패스_5625" data-name="패스 5625" class="cls-1" d="M50.39,5.33a3.26,3.26,0,0,0-6.52,0,3.26,3.26,0,0,0,6.52,0Zm2.12,5.34A5.389,5.389,0,0,1,42.29,13a1.032,1.032,0,0,1,.49-1.4,1.067,1.067,0,0,1,1.41.47,3.267,3.267,0,0,0,6.2-1.34V9.56a5.468,5.468,0,0,1-3.26,1.1A5.33,5.33,0,1,1,47.13,0a5.358,5.358,0,0,1,5.38,5.33Z"/>
    </g>
    <g id="그룹_344" data-name="그룹 344" class="cls-2">
      <path id="패스_5626" data-name="패스 5626" class="cls-1" d="M56.36,5.38a3.26,3.26,0,1,0,3.26-3.26A3.273,3.273,0,0,0,56.36,5.38Zm-2.12,0a5.38,5.38,0,1,1,5.38,5.38A5.382,5.382,0,0,1,54.24,5.38Z"/>
    </g>
  </g>
</svg>
