<svg xmlns="http://www.w3.org/2000/svg" width="68.791" height="9.741" viewBox="0 0 68.791 9.741">
  <defs>
    <style>
      .cls-1 {
        fill: #fff;
      }
    </style>
  </defs>
  <g id="그룹_560" data-name="그룹 560" transform="translate(-115 -559.243)">
    <g id="mangomap" transform="translate(115 559.243)">
      <path id="패스_5630" data-name="패스 5630" class="cls-1" d="M68.151,312.346H69.9l4.391,5.89,4.3-5.89h1.735v9.741H78.323v-6.022c0-.189.018-.529.072-1.038a6.683,6.683,0,0,1-.542,1.019l-3.505,4.87h-.434l-3.505-4.889a4.392,4.392,0,0,1-.56-1c.036.4.054.717.054,1.038v6.022H68.151Z" transform="translate(-68.151 -312.346)"/>
      <path id="패스_5631" data-name="패스 5631" class="cls-1" d="M120.542,312.346h2.1l5.348,9.741h-2.439l-1.12-2.133h-5.909l-1.084,2.133h-2.168Zm2.981,5.852-2.006-3.964L119.44,318.2Z" transform="translate(-101.388 -312.346)"/>
      <path id="패스_5632" data-name="패스 5632" class="cls-1" d="M164.9,312.346h1.482l6.559,5.739A8.207,8.207,0,0,1,174,319.142c-.054-.811-.09-1.378-.09-1.68v-5.116h1.951v9.741h-1.482l-6.848-6.022a7.81,7.81,0,0,1-.777-.793c.072.755.09,1.265.09,1.548v5.267H164.9Z" transform="translate(-136.4 -312.346)"/>
      <path id="패스_5633" data-name="패스 5633" class="cls-1" d="M216.08,314.083v6.173h6.776v-2.171h-3.542v-1.661h5.656v3.36c0,1.831-.56,2.3-2.313,2.3h-6.432c-1.753,0-2.313-.472-2.313-2.3v-5.135c0-1.831.56-2.3,2.313-2.3h6.432c1.7,0,2.313.453,2.313,2.209v.227l-2.114.4v-1.095Z" transform="translate(-170.979 -312.346)"/>
      <path id="패스_5634" data-name="패스 5634" class="cls-1" d="M265,312.346h6.866c1.753,0,2.313.472,2.313,2.3v5.135c0,1.831-.56,2.3-2.313,2.3H265c-1.753,0-2.313-.472-2.313-2.3v-5.135C262.684,312.818,263.244,312.346,265,312.346Zm7.01,7.91v-6.173h-7.155v6.173Z" transform="translate(-205.385 -312.346)"/>
    </g>
  </g>
</svg>
