<svg xmlns="http://www.w3.org/2000/svg" width="51.475" height="14.889" viewBox="0 0 51.475 14.889">
  <defs>
    <style>
      .cls-1 {
        fill: #ffae29;
      }
    </style>
  </defs>
  <g id="todo" transform="translate(-209.982 -255.77)">
    <path id="패스_5638" data-name="패스 5638" class="cls-1" d="M218.04,267.049a1.877,1.877,0,0,1-1.429-.543,2.063,2.063,0,0,1-.517-1.483v-3.091h2.1a1.887,1.887,0,0,0,1.9-1.763,1.853,1.853,0,0,0-1.85-1.942h-2.156v-.557a1.882,1.882,0,0,0-1.758-1.9,1.848,1.848,0,0,0-1.937,1.845v.61h-.513a1.887,1.887,0,0,0-1.9,1.763,1.852,1.852,0,0,0,1.85,1.942h.566V265.7a4.623,4.623,0,0,0,1.288,3.542,4.371,4.371,0,0,0,3.332,1.208,8.572,8.572,0,0,0,1.782-.193,1.625,1.625,0,0,0,1.276-1.594h0a1.633,1.633,0,0,0-1.747-1.629Q218.185,267.049,218.04,267.049Z"/>
    <path id="패스_5639" data-name="패스 5639" class="cls-1" d="M319.217,282.056a6.2,6.2,0,0,1,0,4.79,6.08,6.08,0,0,1-3.25,3.25,5.994,5.994,0,0,1-2.395.482h-.284a6,6,0,0,1-2.395-.482,6.082,6.082,0,0,1-3.249-3.25,6.184,6.184,0,0,1,0-4.79,6.084,6.084,0,0,1,3.249-3.249,5.98,5.98,0,0,1,2.395-.483h.284a5.977,5.977,0,0,1,2.395.483,6.082,6.082,0,0,1,3.25,3.249Zm-3.25,2.395a2.39,2.39,0,0,0-2.395-2.395h-.284a2.395,2.395,0,1,0,0,4.79h.284a2.39,2.39,0,0,0,2.395-2.395Z" transform="translate(-85.828 -19.92)"/>
    <path id="패스_5640" data-name="패스 5640" class="cls-1" d="M549.445,290.579a5.981,5.981,0,0,1-2.395-.482,6.081,6.081,0,0,1-3.25-3.25,6.189,6.189,0,0,1,0-4.79,6.083,6.083,0,0,1,3.25-3.25,5.991,5.991,0,0,1,2.395-.482h.284a5.994,5.994,0,0,1,2.395.482,6.084,6.084,0,0,1,3.25,3.25,6.19,6.19,0,0,1,0,4.79,6.083,6.083,0,0,1-3.25,3.25,5.983,5.983,0,0,1-2.395.482Zm0-8.522a2.395,2.395,0,1,0,0,4.79h.284a2.395,2.395,0,1,0,0-4.79Z" transform="translate(-294.399 -19.92)"/>
    <path id="패스_5641" data-name="패스 5641" class="cls-1" d="M437.569,259.385a1.866,1.866,0,0,0-3.732,0v1.047a6,6,0,0,0-2.395-.482h-.285a5.991,5.991,0,0,0-2.395.482,6.08,6.08,0,0,0-3.25,3.25,6.187,6.187,0,0,0,0,4.79,6.08,6.08,0,0,0,3.25,3.25,5.992,5.992,0,0,0,2.395.482h.285a6,6,0,0,0,2.395-.482,6.08,6.08,0,0,0,3.25-3.25,5.991,5.991,0,0,0,.482-2.395c0-.081,0-.161,0-.242,0-.042,0-.086,0-.13Zm-4.432,8.387a2.309,2.309,0,0,1-1.695.7h-.285a2.4,2.4,0,1,1,0-4.79h.285a2.4,2.4,0,0,1,1.695,4.091Z" transform="translate(-189.929 -1.546)"/>
  </g>
</svg>
